{"title":"Barry Munday.2010 BRRip Xvid AC3 LKRG","uid":6023101,"size":1055702226,"categoryP":"video","categoryS":"movies","magnet":"?xt=urn:btih:95265032b4861210f5d0581be414cedad4bc8f50&amp;dn=Barry+Munday.2010+BRRip+Xvid+AC3+LKRG&amp;tr=udp%3A%2F%2Ftracker.openbittorrent.com%3A80&amp;tr=udp%3A%2F%2Fopen.demonii.com%3A1337&amp;tr=udp%3A%2F%2Ftracker.coppersurfer.tk%3A6969&amp;tr=udp%3A%2F%2Fexodus.desync.com%3A6969","seeders":0,"leechers":2,"uploader":"neon","files":-1,"time":1291862288,"description":"Barry Munday wakes up after being attacked to realize that he's missing his family jewels. To make matters worse, he learns he's facing a paternity lawsuit filed by a woman he can't remember having sex with.\n\nCast: Mae Whitman ...\nCandice\nPatrick Wilson \nBarry Munday\nJudy Greer \nGinger Farley\nColin Hanks \nHeavy Metal Greg\nMalcolm McDowell \nMr. Farley\nChloÃƒÂ« Sevigny \nJennifer Farley\n\n--------------------------------------------------------------------------------\n &lt;a href=&quot; http://www.imdb.com/title/tt0482461/&quot; rel=&quot;nofollow&quot; target=&quot;_NEW&quot;&gt; http://www.imdb.com/title/tt0482461/&lt;/a&gt; \n--------------------------------------------------------------------------------\nINFOFormat;Avi\n\nFile Size:0.99gb\n\nVideo: ID : 0\nFormat : MPEG-4 Visual\nFormat profile : Advanced Simple@L5\nFormat settings, BVOP : Yes\nFormat settings, QPel : No\nFormat settings, GMC : No warppoints\nFormat settings, Matrix : Default (H.263)\nCodec ID : XVID\nCodec ID/Hint : XviD\nDuration : 1h 34mn\nBit rate : 1 088 Kbps\nWidth : 704 pixels\nHeight : 400 pixels\nDisplay aspect ratio : 16:9\nFrame rate : 23.976 fps\nColor space : YUV\nChroma subsampling : 4:2:0\nBit depth : 8 bits\nScan type : Progressive\nBits/(Pixel*Frame) : 0.161\nStream size : 739 MiB (73%)\nWriting library : XviD 1.2.1 (UTC 2008-12-04)\n\nAudio: ID : 1\nFormat : AC-3\nFormat/Info : Audio Coding 3\nMode extension : CM (complete main)\nCodec ID : 2000\nDuration : 1h 34mn\nBit rate mode : Constant\nBit rate : 384 Kbps\nChannel(s) : 6 channels\nChannel positions : Front: L C R, Side: L R, LFE\nSampling rate : 48.0 KHz\nBit depth : 16 bits\nStream size : 261 MiB (26%)\nAlignment : Aligned on interleaves\nInterleave, duration : 32 ms (0.77 video frame)\n\n\nDuration:1:34\n\nRelease Date:2010\n\nLanguage:English \n--------------------------------------------------------------------------------\n\n\n\n\n\nPlot: Barry Munday wakes up after being attacked to realize that he's missing his family jewels. To make matters worse, he learns he's facing a paternity lawsuit filed by a woman he can't remember having sex with.\n\nCast: Mae Whitman ...\nCandice\nPatrick Wilson Patrick Wilson ...\nBarry Munday\nJudy Greer Judy Greer ...\nGinger Farley\nColin Hanks Colin Hanks ...\nHeavy Metal Greg\nMalcolm McDowell Malcolm McDowell ...\nMr. Farley\nChloÃƒÂ« Sevigny ChloÃƒÂ« Sevigny ...\nJennifer Farley\n\n--------------------------------------------------------------------------------\n &lt;a href=&quot;\nhttp://img706.imageshack.us/img706/6915/vlcsnap2010120817h40m15.png&quot; rel=&quot;nofollow&quot; target=&quot;_NEW&quot;&gt;\nhttp://img706.imageshack.us/img706/6915/vlcsnap2010120817h40m15.png&lt;/a&gt; &lt;a href=&quot;\nhttp://img713.imageshack.us/img713/8181/vlcsnap2010120817h40m30.png&quot; rel=&quot;nofollow&quot; target=&quot;_NEW&quot;&gt;\nhttp://img713.imageshack.us/img713/8181/vlcsnap2010120817h40m30.png&lt;/a&gt; &lt;a href=&quot;\nhttp://img573.imageshack.us/img573/2683/vlcsnap2010120817h41m02.png&quot; rel=&quot;nofollow&quot; target=&quot;_NEW&quot;&gt;\nhttp://img573.imageshack.us/img573/2683/vlcsnap2010120817h41m02.png&lt;/a&gt; &lt;a href=&quot;\nhttp://img43.imageshack.us/img43/3379/vlcsnap2010120817h41m17.png&quot; rel=&quot;nofollow&quot; target=&quot;_NEW&quot;&gt;\nhttp://img43.imageshack.us/img43/3379/vlcsnap2010120817h41m17.png&lt;/a&gt; &lt;a href=&quot;\nhttp://img24.imageshack.us/img24/8019/vlcsnap2010120817h40m42.png&quot; rel=&quot;nofollow&quot; target=&quot;_NEW&quot;&gt;\nhttp://img24.imageshack.us/img24/8019/vlcsnap2010120817h40m42.png&lt;/a&gt;\n--------------------------------------------------------------------------------\n &lt;a href=&quot;\nhttp://www.imdb.com/title/tt0482461/&quot; rel=&quot;nofollow&quot; target=&quot;_NEW&quot;&gt;\nhttp://www.imdb.com/title/tt0482461/&lt;/a&gt; \n--------------------------------------------------------------------------------\n\nFormat;Avi\n\nFile Size:0.99gb\n\nVideo: ID : 0\nFormat : MPEG-4 Visual\nFormat profile : Advanced Simple@L5\nFormat settings, BVOP : Yes\nFormat settings, QPel : No\nFormat settings, GMC : No warppoints\nFormat settings, Matrix : Default (H.263)\nCodec ID : XVID\nCodec ID/Hint : XviD\nDuration : 1h 34mn\nBit rate : 1 088 Kbps\nWidth : 704 pixels\nHeight : 400 pixels\nDisplay aspect ratio : 16:9\nFrame rate : 23.976 fps\nColor space : YUV\nChroma subsampling : 4:2:0\nBit depth : 8 bits\nScan type : Progressive\nBits/(Pixel*Frame) : 0.161\nStream size : 739 MiB (73%)\nWriting library : XviD 1.2.1 (UTC 2008-12-04)\n\nAudio: ID : 1\nFormat : AC-3\nFormat/Info : Audio Coding 3\nMode extension : CM (complete main)\nCodec ID : 2000\nDuration : 1h 34mn\nBit rate mode : Constant\nBit rate : 384 Kbps\nChannel(s) : 6 channels\nChannel positions : Front: L C R, Side: L R, LFE\nSampling rate : 48.0 KHz\nBit depth : 16 bits\nStream size : 261 MiB (26%)\nAlignment : Aligned on interleaves\nInterleave, duration : 32 ms (0.77 video frame)\n\nDuration:1:34\n\nRelease Date:2010\n\nLanguage:English \n--------------------------------------------------------------------------------\nEncoded by Exclusive666 :) thanks\n\n\n\n\n\n\n\n\n\n\n\n\n","torrent":{"xt":"urn:btih:95265032b4861210f5d0581be414cedad4bc8f50","amp;dn":"Barry+Munday.2010+BRRip+Xvid+AC3+LKRG","amp;tr":["udp%3A%2F%2Ftracker.openbittorrent.com%3A80","udp%3A%2F%2Fopen.demonii.com%3A1337","udp%3A%2F%2Ftracker.coppersurfer.tk%3A6969","udp%3A%2F%2Fexodus.desync.com%3A6969"],"infoHash":"95265032b4861210f5d0581be414cedad4bc8f50","infoHashBuffer":{"type":"Buffer","data":[149,38,80,50,180,134,18,16,245,208,88,27,228,20,206,218,212,188,143,80]},"announce":[],"urlList":[]}}